<svg width="16" height="16" viewBox="0 0 16 16" fill="none" xmlns="http://www.w3.org/2000/svg">
<g clip-path="url(#clip0_221_111)">
<path d="M9.38248 2.59031C9.87927 2.05206 10.1277 1.78294 10.3916 1.62596C11.0285 1.24718 11.8127 1.2354 12.4602 1.59489C12.7286 1.74388 12.9846 2.00542 13.4967 2.52852C14.0088 3.05161 14.2648 3.31316 14.4106 3.58729C14.7626 4.24876 14.751 5.04987 14.3802 5.70048C14.2266 5.97012 13.9631 6.22386 13.4362 6.73135L7.16709 12.7695C6.16859 13.7313 5.66934 14.2121 5.04538 14.4558C4.42142 14.6995 3.73548 14.6816 2.36359 14.6457L2.17693 14.6409C1.75928 14.6299 1.55046 14.6245 1.42907 14.4867C1.30768 14.3489 1.32425 14.1362 1.3574 13.7108L1.37539 13.4798C1.46868 12.2824 1.51533 11.6837 1.74915 11.1455C1.98297 10.6073 2.3863 10.1703 3.19296 9.29634L9.38248 2.59031Z" stroke="white" stroke-width="1.2" stroke-linejoin="round"/>
<path d="M8.66669 2.66669L13.3334 7.33335" stroke="white" stroke-width="1.2" stroke-linejoin="round"/>
<path d="M9.33334 14.6667L14.6667 14.6667" stroke="white" stroke-width="1.2" stroke-linecap="round" stroke-linejoin="round"/>
</g>
<defs>
<clipPath id="clip0_221_111">
<rect width="16" height="16" fill="white"/>
</clipPath>
</defs>
</svg>
